# xmcd
# 
# Track frame offsets:
#     150
#     4385
#     7065
#     12298
#     14268
#     16245
#     23458
#     24073
#     27285
#     27935
#     28698
#     31508
#     38698
#     43158
#     47785
#     50303
#     53135
#     54893
#     59765
#     64750
#     71605
#     75778
#     83863
#     89333
#     93348
#     97798
#     100938
#     106743
#     119503
#     142618
#     144173
#     150448
#     151130
#     152985
#     153538
#     156603
#     157283
#     158903
#     165495
#     166838
#     169905
#     175080
#     179120
#     190580
#     197258
#     199210
#     199635
#     200818
#     207748
#     211948
#     214440
#     220518
#     225808
#     240035
#     242973
#     246020
#     246930
#     252868
# 
# Disc length: 3411
# 
# Revision: 2
# Processed by: cddbd v1.5.2PL0 Copyright (c) Steve Scherf et al.
# Submitted via: BonkEnc v1.0.8
# 
DISCID=ec0d513a
DTITLE=CINNAMON - CINNAMONIII
DYEAR=1994
DGENRE=Rock
TTITLE0=STAIRWAY TO HEAVEN
TTITLE1=BABE I’M GONNA LEAVE YOU
TTITLE2=STAIRWAY TO HEAVEN
TTITLE3=TANGERINE
TTITLE4=TEN YEARS GONE
TTITLE5=NIGHT FLIGHT
TTITLE6=TRAMPLED UNDERFOOT
TTITLE7=IMMIGRANT SONG
TTITLE8=ROCK AND ROLL
TTITLE9=HEARTBREAKER
TTITLE10=WHOLE LOTTA LOVE
TTITLE11=HEARTBREAKER
TTITLE12=WHAT IS AND WHAT SHOULD NEVER BE
TTITLE13=HEARTBREAKER
TTITLE14=WHOLE LOTTA LOVE
TTITLE15=WHOLE LOTTA LOVE
TTITLE16=WHAT IS AND WHAT SHOULD NEVER BE
TTITLE17=GOOD TIMES BAD TIMES
TTITLE18=OVER THE HILLS AND FARAWAY
TTITLE19=BLACK MOUNTAIN SIDE〜COMMUNICATION BREAKDOWN
TTITLE20=STAIRWAY TO HEAVEN
TTITLE21=RAIN SONG,THE
TTITLE22=KASHMIR
TTITLE23=LEMON SONG
TTITLE24=ACHILLES LAST STAND
TTITLE25=LEMON SONG
TTITLE26=OCEAN,THE
TTITLE27=HOW MANY MORE TIMES
TTITLE28=DAZED AND CONFUSED
TTITLE29=COMMUNICATION BREAKDOWN
TTITLE30=WEARING TEARING
TTITLE31=SICK AGAIN
TTITLE32=ROVER,THE
TTITLE33=SICK AGAIN
TTITLE34=GRUNGE,THE
TTITLE35=IN MY TIME OF DYING
TTITLE36=CUSTARD PIE
TTITLE37=IN MY TIME OF DYING
TTITLE38=HUNTER
TTITLE39=WE ARE GONNA GROOVE
TTITLE40=BLACK COUNTRY WOMAN
TTITLE41=MISTY MOUNTAIN HOP
TTITLE42=SINCE I’VE BEEN LOVING YOU
TTITLE43=YOU SHOCK ME I CAN’T QUIT YOU BABY
TTITLE44=BLACK DOG
TTITLE45=NOBODY’S FAULT BUT MINE
TTITLE46=SHAKE MY TREE
TTITLE47=NOBODY’S FAULT BUT MINE
TTITLE48=CELEBRATION DAY
TTITLE49=IN THE EVENING
TTITLE50=NO QUARTER
TTITLE51=IN THE EVENING
TTITLE52=STAIRWAY TO HEAVEN
TTITLE53=TANGELINE
TTITLE54=ALL MY LOVE
TTITLE55=GALLOWS POLE
TTITLE56=STAIRWAY TO HEAVEN
TTITLE57=THANK YOU
EXTD=
EXTT0=
EXTT1=
EXTT2=
EXTT3=
EXTT4=
EXTT5=
EXTT6=
EXTT7=
EXTT8=
EXTT9=
EXTT10=
EXTT11=
EXTT12=
EXTT13=
EXTT14=
EXTT15=
EXTT16=
EXTT17=
EXTT18=
EXTT19=
EXTT20=
EXTT21=
EXTT22=
EXTT23=
EXTT24=
EXTT25=
EXTT26=
EXTT27=
EXTT28=
EXTT29=
EXTT30=
EXTT31=
EXTT32=
EXTT33=
EXTT34=
EXTT35=
EXTT36=
EXTT37=
EXTT38=
EXTT39=
EXTT40=
EXTT41=
EXTT42=
EXTT43=
EXTT44=
EXTT45=
EXTT46=
EXTT47=
EXTT48=
EXTT49=
EXTT50=
EXTT51=
EXTT52=
EXTT53=
EXTT54=
EXTT55=
EXTT56=
EXTT57=
PLAYORDER=
